<svg aria-hidden="true" style="position: absolute; width: 0; height: 0; overflow: hidden;" version="1.1" xmlns="http://www.w3.org/2000/svg" xmlns:xlink="http://www.w3.org/1999/xlink">
<defs>
<symbol id="icon-streamvibe" viewBox="0 0 216 32">
<path fill="#fff" style="fill: var(--color1, #fff)" d="M2 11.186c0-1.18 0.223-2.288 0.668-3.322s1.048-1.936 1.807-2.705c0.773-0.782 1.67-1.399 2.691-1.85s2.115-0.676 3.28-0.676h12.924v5.709h-12.924c-0.393 0-0.759 0.073-1.1 0.219s-0.642 0.351-0.903 0.617c-0.249 0.252-0.445 0.55-0.589 0.895s-0.216 0.716-0.216 1.114c0 0.398 0.072 0.776 0.216 1.134 0.144 0.345 0.34 0.65 0.589 0.915 0.262 0.252 0.563 0.451 0.903 0.597s0.707 0.219 1.1 0.219h5.637c1.165 0 2.259 0.225 3.28 0.676 1.034 0.438 1.931 1.048 2.691 1.83 0.773 0.769 1.375 1.678 1.807 2.725 0.445 1.034 0.668 2.142 0.668 3.322s-0.223 2.288-0.668 3.322c-0.432 1.034-1.034 1.943-1.807 2.725-0.759 0.769-1.656 1.379-2.691 1.83-1.021 0.451-2.115 0.676-3.28 0.676h-12.511v-5.709h12.511c0.393 0 0.759-0.073 1.1-0.219s0.635-0.345 0.884-0.597c0.262-0.265 0.465-0.57 0.609-0.915s0.216-0.716 0.216-1.114c0-0.398-0.072-0.769-0.216-1.114s-0.347-0.643-0.609-0.895c-0.249-0.265-0.543-0.471-0.884-0.617s-0.707-0.219-1.1-0.219h-5.637c-1.165 0-2.259-0.225-3.28-0.676s-1.918-1.061-2.691-1.83c-0.759-0.782-1.362-1.691-1.807-2.725-0.445-1.048-0.668-2.162-0.668-3.342z"></path>
<path fill="#fff" style="fill: var(--color1, #fff)" d="M37.865 31.158c-1.296 0-2.514-0.245-3.653-0.736-1.139-0.504-2.141-1.187-3.005-2.049-0.851-0.875-1.525-1.89-2.023-3.043-0.485-1.154-0.727-2.387-0.727-3.7v-6.326h-2.612v-5.411h2.612v-8.514h5.342v8.514h8.131v5.411h-8.131v6.326c0 0.57 0.105 1.107 0.314 1.611 0.21 0.491 0.498 0.922 0.864 1.293s0.799 0.67 1.296 0.895c0.498 0.212 1.028 0.318 1.591 0.318h4.066v5.411h-4.066z"></path>
<path fill="#fff" style="fill: var(--color1, #fff)" d="M50.317 31.158h-5.362v-21.304h1.296l1.768 2.526c0.864-0.796 1.846-1.406 2.946-1.83 1.1-0.438 2.239-0.656 3.418-0.656h4.734v5.411h-4.734c-0.563 0-1.093 0.106-1.591 0.318s-0.93 0.504-1.296 0.875c-0.367 0.371-0.655 0.809-0.864 1.313s-0.314 1.041-0.314 1.611v11.736z"></path>
<path fill="#fff" style="fill: var(--color1, #fff)" d="M69.585 25.946c0.21 0.066 0.419 0.113 0.629 0.139 0.21 0.013 0.419 0.020 0.629 0.020 0.524 0 1.028-0.073 1.513-0.219s0.936-0.351 1.355-0.617c0.432-0.278 0.812-0.61 1.139-0.995 0.34-0.398 0.615-0.835 0.825-1.313l3.928 3.998c-0.498 0.716-1.074 1.359-1.728 1.929-0.642 0.57-1.342 1.054-2.102 1.452-0.746 0.398-1.539 0.696-2.377 0.895-0.825 0.212-1.676 0.318-2.553 0.318-1.479 0-2.874-0.278-4.183-0.835-1.296-0.557-2.435-1.333-3.418-2.327-0.969-0.995-1.735-2.175-2.298-3.541-0.563-1.379-0.845-2.891-0.845-4.535 0-1.684 0.282-3.223 0.845-4.615s1.329-2.579 2.298-3.561c0.982-0.981 2.121-1.744 3.418-2.288 1.309-0.544 2.704-0.816 4.183-0.816 0.877 0 1.735 0.106 2.573 0.318s1.63 0.517 2.377 0.915c0.759 0.398 1.467 0.889 2.121 1.472 0.655 0.57 1.231 1.213 1.729 1.93l-10.057 12.273zM72.335 14.747c-0.249-0.093-0.498-0.152-0.746-0.179-0.236-0.027-0.485-0.040-0.746-0.040-0.733 0-1.427 0.139-2.082 0.418-0.642 0.265-1.205 0.65-1.689 1.154-0.471 0.504-0.845 1.114-1.12 1.83-0.275 0.703-0.412 1.499-0.412 2.387 0 0.199 0.006 0.424 0.019 0.676 0.026 0.252 0.059 0.511 0.098 0.776 0.053 0.252 0.111 0.497 0.177 0.736s0.151 0.451 0.255 0.637l6.246-8.394z"></path>
<path fill="#fff" style="fill: var(--color1, #fff)" d="M102.563 31.158h-1.296l-2.082-2.924c-0.511 0.464-1.054 0.902-1.63 1.313-0.563 0.398-1.159 0.749-1.787 1.054-0.629 0.292-1.277 0.524-1.945 0.696-0.655 0.173-1.322 0.259-2.003 0.259-1.479 0-2.874-0.252-4.183-0.756-1.296-0.504-2.435-1.233-3.418-2.188-0.969-0.968-1.735-2.148-2.298-3.541s-0.845-2.977-0.845-4.754c0-1.658 0.282-3.176 0.845-4.555 0.563-1.392 1.329-2.586 2.298-3.581 0.982-0.995 2.121-1.764 3.418-2.308 1.309-0.557 2.704-0.835 4.183-0.835 0.681 0 1.355 0.086 2.023 0.259s1.316 0.411 1.945 0.716c0.629 0.305 1.224 0.663 1.787 1.074 0.576 0.411 1.113 0.855 1.611 1.333l2.082-2.526h1.296v21.264zM97.162 20.317c0-0.743-0.144-1.459-0.432-2.148-0.275-0.703-0.655-1.32-1.139-1.85-0.485-0.544-1.054-0.975-1.709-1.293-0.642-0.332-1.329-0.497-2.062-0.497s-1.427 0.126-2.082 0.378c-0.642 0.252-1.205 0.623-1.689 1.114-0.471 0.491-0.845 1.101-1.12 1.83-0.275 0.716-0.412 1.538-0.412 2.467s0.137 1.757 0.412 2.486c0.275 0.716 0.648 1.32 1.12 1.81 0.485 0.491 1.047 0.862 1.689 1.114 0.655 0.252 1.349 0.378 2.082 0.378s1.421-0.159 2.062-0.477c0.655-0.332 1.224-0.762 1.709-1.293 0.485-0.544 0.864-1.16 1.139-1.85 0.288-0.703 0.432-1.426 0.432-2.168z"></path>
<path fill="#fff" style="fill: var(--color1, #fff)" d="M133.419 31.158h-5.342v-13.527c0-0.371-0.072-0.723-0.216-1.054-0.131-0.332-0.321-0.623-0.57-0.875s-0.537-0.444-0.864-0.577c-0.327-0.146-0.674-0.219-1.041-0.219s-0.714 0.073-1.041 0.219c-0.314 0.133-0.596 0.325-0.845 0.577-0.236 0.252-0.426 0.544-0.57 0.875-0.131 0.332-0.196 0.683-0.196 1.054v13.526h-5.362v-13.526c0-0.371-0.072-0.723-0.216-1.054-0.131-0.332-0.321-0.623-0.57-0.875s-0.537-0.444-0.864-0.577c-0.327-0.146-0.674-0.219-1.041-0.219s-0.714 0.073-1.041 0.219c-0.314 0.133-0.596 0.325-0.845 0.577-0.235 0.252-0.425 0.544-0.57 0.875-0.131 0.332-0.196 0.683-0.196 1.054v13.526h-5.362v-21.304h1.296l1.454 1.631c0.746-0.637 1.565-1.127 2.455-1.472 0.903-0.358 1.84-0.537 2.809-0.537 0.982 0 1.938 0.186 2.868 0.557 0.943 0.371 1.768 1.014 2.475 1.93 0.327-0.451 0.701-0.835 1.12-1.154s0.858-0.577 1.316-0.776c0.471-0.199 0.956-0.338 1.453-0.418 0.498-0.093 0.989-0.139 1.473-0.139 1.113 0 2.154 0.212 3.123 0.637 0.982 0.424 1.833 1.008 2.553 1.75 0.733 0.729 1.31 1.591 1.729 2.586s0.629 2.056 0.629 3.183v13.526z"></path>
<path fill="#fff" style="fill: var(--color1, #fff)" d="M159.444 2.633l-9.251 28.525h-5.637l-9.212-28.525h6.403l5.618 19.037 5.637-19.037h6.442z"></path>
<path fill="#fff" style="fill: var(--color1, #fff)" d="M167.909 4.065c0 0.504-0.098 0.975-0.295 1.412-0.183 0.438-0.439 0.822-0.766 1.154-0.327 0.318-0.714 0.577-1.159 0.776-0.432 0.186-0.897 0.278-1.394 0.278s-0.969-0.093-1.414-0.278c-0.432-0.199-0.812-0.458-1.139-0.776-0.314-0.332-0.57-0.716-0.766-1.154-0.183-0.438-0.275-0.908-0.275-1.412 0-0.491 0.092-0.955 0.275-1.392 0.197-0.451 0.452-0.835 0.766-1.154 0.327-0.332 0.707-0.59 1.139-0.776 0.445-0.199 0.917-0.298 1.414-0.298s0.962 0.099 1.394 0.298c0.445 0.186 0.831 0.444 1.159 0.776 0.327 0.318 0.583 0.703 0.766 1.154 0.197 0.438 0.295 0.902 0.295 1.392zM166.986 31.158h-5.401v-21.304h5.401v21.304z"></path>
<path fill="#fff" style="fill: var(--color1, #fff)" d="M192.147 20.317c0 1.671-0.282 3.196-0.845 4.575s-1.329 2.566-2.298 3.561c-0.969 0.981-2.108 1.744-3.418 2.288-1.296 0.544-2.691 0.815-4.183 0.815-1.48 0-2.874-0.278-4.184-0.835-1.296-0.557-2.435-1.333-3.417-2.327-0.969-0.995-1.735-2.175-2.298-3.541-0.563-1.379-0.845-2.891-0.845-4.535v-18.937h5.382v9.946c0.288-0.371 0.635-0.703 1.041-0.995 0.419-0.292 0.864-0.53 1.335-0.716 0.485-0.186 0.982-0.325 1.493-0.418 0.511-0.106 1.008-0.159 1.493-0.159 1.493 0 2.887 0.285 4.183 0.855 1.31 0.557 2.449 1.339 3.418 2.347s1.735 2.201 2.298 3.581c0.563 1.366 0.845 2.864 0.845 4.496zM186.745 20.317c0-0.822-0.144-1.585-0.432-2.288-0.275-0.716-0.655-1.333-1.139-1.85s-1.054-0.922-1.709-1.213c-0.642-0.292-1.329-0.438-2.062-0.438s-1.427 0.166-2.082 0.497c-0.642 0.318-1.205 0.749-1.689 1.293-0.485 0.53-0.864 1.147-1.139 1.85-0.275 0.69-0.412 1.406-0.412 2.148 0 0.822 0.137 1.585 0.412 2.288s0.655 1.313 1.139 1.83c0.485 0.517 1.047 0.928 1.689 1.233 0.655 0.292 1.349 0.438 2.082 0.438s1.421-0.146 2.062-0.438c0.655-0.305 1.224-0.716 1.709-1.233s0.864-1.127 1.139-1.83c0.288-0.703 0.432-1.465 0.432-2.288z"></path>
<path fill="#fff" style="fill: var(--color1, #fff)" d="M203.499 25.946c0.21 0.066 0.419 0.113 0.629 0.139 0.21 0.013 0.419 0.020 0.629 0.020 0.524 0 1.028-0.073 1.513-0.219s0.936-0.351 1.355-0.617c0.432-0.278 0.812-0.61 1.139-0.995 0.34-0.398 0.615-0.835 0.825-1.313l3.928 3.998c-0.498 0.716-1.074 1.359-1.728 1.929-0.642 0.57-1.342 1.054-2.102 1.452-0.746 0.398-1.538 0.696-2.377 0.895-0.825 0.212-1.676 0.318-2.553 0.318-1.479 0-2.874-0.278-4.183-0.835-1.296-0.557-2.435-1.333-3.418-2.327-0.969-0.995-1.735-2.175-2.298-3.541-0.563-1.379-0.845-2.891-0.845-4.535 0-1.684 0.282-3.223 0.845-4.615s1.329-2.579 2.298-3.561c0.982-0.981 2.121-1.744 3.418-2.288 1.309-0.544 2.704-0.816 4.183-0.816 0.877 0 1.735 0.106 2.573 0.318s1.63 0.517 2.377 0.915c0.759 0.398 1.467 0.889 2.121 1.472 0.655 0.57 1.231 1.213 1.728 1.93l-10.056 12.273zM206.249 14.747c-0.249-0.093-0.498-0.152-0.746-0.179-0.236-0.027-0.485-0.040-0.746-0.040-0.733 0-1.427 0.139-2.082 0.418-0.642 0.265-1.205 0.65-1.689 1.154-0.471 0.504-0.845 1.114-1.12 1.83-0.275 0.703-0.413 1.499-0.413 2.387 0 0.199 0.007 0.424 0.020 0.676 0.026 0.252 0.059 0.511 0.098 0.776 0.053 0.252 0.111 0.497 0.177 0.736s0.151 0.451 0.255 0.637l6.246-8.394z"></path>
</symbol>
<symbol id="icon-logo" viewBox="0 0 31 32">
<path fill="#e60000" style="fill: var(--color2, #e60000)" d="M25.814 12.932c-0.218-6.819-5.743-12.322-12.585-12.488-0.176 0-0.321 0.135-0.321 0.311l-0.010 4.581c0 0.228-0.176 0.404-0.404 0.415-6.821 0.207-12.326 5.741-12.492 12.581 0 0.176 0.135 0.321 0.311 0.321l4.572 0.010c0.228 0 0.404 0.176 0.415 0.404 0.218 6.819 5.754 12.322 12.585 12.488 0.176 0 0.321-0.135 0.321-0.311l0.010-4.581c0-0.228 0.176-0.404 0.404-0.415 6.821-0.218 12.326-5.752 12.492-12.581 0-0.176-0.135-0.321-0.311-0.321l-4.572-0.010c-0.228 0-0.404-0.176-0.415-0.404zM17.759 26.218c-3.877-0.228-6.987-3.378-7.132-7.275-0.010-0.166-0.145-0.301-0.311-0.301l-4.561-0.010c-0.238 0-0.425-0.197-0.415-0.435 0.228-3.876 3.38-6.985 7.278-7.13 0.166-0.010 0.301-0.145 0.301-0.311l0.010-4.57c0-0.238 0.197-0.425 0.435-0.415 3.877 0.228 6.987 3.378 7.132 7.275 0.010 0.166 0.145 0.301 0.311 0.301l4.561 0.010c0.238 0 0.425 0.197 0.415 0.435-0.228 3.98-3.535 7.14-7.568 7.14l-0.010 4.871c-0.010 0.238-0.207 0.425-0.446 0.415z"></path>
<path fill="#fff" style="fill: var(--color1, #fff)" d="M12.771 13.243c0-0.627 0.672-1.025 1.222-0.722l5.074 2.791c0.57 0.313 0.57 1.132 0 1.445l-5.074 2.791c-0.549 0.302-1.222-0.095-1.222-0.722v-5.582z"></path>
</symbol>
<symbol id="icon-search" viewBox="0 0 32 32">
<path fill="none" stroke="#fff" style="stroke: var(--color1, #fff)" stroke-linejoin="round" stroke-linecap="butt" stroke-miterlimit="4" stroke-width="2.4612" d="M1.231 13.538c0-6.797 5.51-12.308 12.308-12.308s12.308 5.51 12.308 12.308v0c0 6.797-5.51 12.308-12.308 12.308s-12.308-5.51-12.308-12.308v0zM30.769 30.769l-8.528-8.528"></path>
</symbol>
<symbol id="icon-notification" viewBox="0 0 30 32">
<path fill="none" stroke="#fff" style="stroke: var(--color1, #fff)" stroke-linejoin="round" stroke-linecap="butt" stroke-miterlimit="4" stroke-width="2.4615" d="M19.566 24.34c0.148 0.448 0.233 0.963 0.233 1.498 0 2.719-2.201 4.925-4.919 4.931h-0.001c-0 0-0.001 0-0.002 0-2.719 0-4.923-2.204-4.923-4.923 0-0.538 0.086-1.056 0.246-1.541l-0.010 0.035M24.726 11.157v1.15c0 3.801 1.434 7.265 3.791 9.882-2.596 0.992-5.621 1.747-8.761 2.131l-0.189 0.019c-1.407 0.176-3.036 0.277-4.688 0.277s-3.28-0.101-4.88-0.296l0.192 0.019c-3.33-0.402-6.356-1.157-9.221-2.239l0.27 0.089c2.354-2.598 3.794-6.062 3.794-9.862 0-0.007 0-0.014-0-0.022v0.001-1.231c0-5.438 4.408-9.846 9.846-9.846s9.846 4.408 9.846 9.846v0 0.082z"></path>
</symbol>
<symbol id="icon-mobileopen" viewBox="0 0 48 32">
<path fill="#fff" style="fill: var(--color1, #fff)" d="M0 2c0-1.105 0.895-2 2-2v0h44c1.105 0 2 0.895 2 2s-0.895 2-2 2v0h-44c-1.105 0-2-0.895-2-2v0zM0 16c0-1.105 0.895-2 2-2v0h44c1.105 0 2 0.895 2 2s-0.895 2-2 2v0h-44c-1.105 0-2-0.895-2-2v0zM22 30c0-1.105 0.895-2 2-2v0h22c1.105 0 2 0.895 2 2s-0.895 2-2 2v0h-22c-1.105 0-2-0.895-2-2v0z"></path>
</symbol>
<symbol id="icon-play" viewBox="0 0 32 32">
<path fill="#fff" style="fill: var(--color1, #fff)" d="M6 7.537c0-1.901 2.039-3.107 3.705-2.191l15.387 8.463c1.727 0.951 1.727 3.432 0 4.381l-15.385 8.463c-1.667 0.917-3.705-0.289-3.705-2.191v-16.925z"></path>
</symbol>
<symbol id="icon-arrow-left" viewBox="0 0 32 32">
<path fill="none" stroke="#fff" style="stroke: var(--color1, #fff)" stroke-linejoin="round" stroke-linecap="round" stroke-miterlimit="4" stroke-width="2" d="M26 16h-20M6 16l9 9M6 16l9-9"></path>
</symbol>
<symbol id="icon-arrow-right" viewBox="0 0 32 32">
<path fill="none" stroke="#fff" style="stroke: var(--color1, #fff)" stroke-linejoin="round" stroke-linecap="round" stroke-miterlimit="4" stroke-width="2" d="M18 6l10 10M28 16l-10 10M28 16h-24"></path>
</symbol>
</defs>
</svg>
