<svg aria-hidden="true" style="position: absolute; width: 0; height: 0; overflow: hidden;" version="1.1" xmlns="http://www.w3.org/2000/svg" xmlns:xlink="http://www.w3.org/1999/xlink">
<defs>
<symbol id="icon-streamvibe" viewBox="0 0 216 32">
<path fill="#fff" style="fill: var(--color1, #fff)" d="M2 11.186c0-1.18 0.223-2.288 0.668-3.322s1.048-1.936 1.807-2.705c0.773-0.782 1.67-1.399 2.691-1.85s2.115-0.676 3.28-0.676h12.924v5.709h-12.924c-0.393 0-0.759 0.073-1.1 0.219s-0.642 0.351-0.903 0.617c-0.249 0.252-0.445 0.55-0.589 0.895s-0.216 0.716-0.216 1.114c0 0.398 0.072 0.776 0.216 1.134 0.144 0.345 0.34 0.65 0.589 0.915 0.262 0.252 0.563 0.451 0.903 0.597s0.707 0.219 1.1 0.219h5.637c1.165 0 2.259 0.225 3.28 0.676 1.034 0.438 1.931 1.048 2.691 1.83 0.773 0.769 1.375 1.678 1.807 2.725 0.445 1.034 0.668 2.142 0.668 3.322s-0.223 2.288-0.668 3.322c-0.432 1.034-1.034 1.943-1.807 2.725-0.759 0.769-1.656 1.379-2.691 1.83-1.021 0.451-2.115 0.676-3.28 0.676h-12.511v-5.709h12.511c0.393 0 0.759-0.073 1.1-0.219s0.635-0.345 0.884-0.597c0.262-0.265 0.465-0.57 0.609-0.915s0.216-0.716 0.216-1.114c0-0.398-0.072-0.769-0.216-1.114s-0.347-0.643-0.609-0.895c-0.249-0.265-0.543-0.471-0.884-0.617s-0.707-0.219-1.1-0.219h-5.637c-1.165 0-2.259-0.225-3.28-0.676s-1.918-1.061-2.691-1.83c-0.759-0.782-1.362-1.691-1.807-2.725-0.445-1.048-0.668-2.162-0.668-3.342z"></path>
<path fill="#fff" style="fill: var(--color1, #fff)" d="M37.865 31.158c-1.296 0-2.514-0.245-3.653-0.736-1.139-0.504-2.141-1.187-3.005-2.049-0.851-0.875-1.525-1.89-2.023-3.043-0.485-1.154-0.727-2.387-0.727-3.7v-6.326h-2.612v-5.411h2.612v-8.514h5.342v8.514h8.131v5.411h-8.131v6.326c0 0.57 0.105 1.107 0.314 1.611 0.21 0.491 0.498 0.922 0.864 1.293s0.799 0.67 1.296 0.895c0.498 0.212 1.028 0.318 1.591 0.318h4.066v5.411h-4.066z"></path>
<path fill="#fff" style="fill: var(--color1, #fff)" d="M50.317 31.158h-5.362v-21.304h1.296l1.768 2.526c0.864-0.796 1.846-1.406 2.946-1.83 1.1-0.438 2.239-0.656 3.418-0.656h4.734v5.411h-4.734c-0.563 0-1.093 0.106-1.591 0.318s-0.93 0.504-1.296 0.875c-0.367 0.371-0.655 0.809-0.864 1.313s-0.314 1.041-0.314 1.611v11.736z"></path>
<path fill="#fff" style="fill: var(--color1, #fff)" d="M69.585 25.946c0.21 0.066 0.419 0.113 0.629 0.139 0.21 0.013 0.419 0.020 0.629 0.020 0.524 0 1.028-0.073 1.513-0.219s0.936-0.351 1.355-0.617c0.432-0.278 0.812-0.61 1.139-0.995 0.34-0.398 0.615-0.835 0.825-1.313l3.928 3.998c-0.498 0.716-1.074 1.359-1.728 1.929-0.642 0.57-1.342 1.054-2.102 1.452-0.746 0.398-1.539 0.696-2.377 0.895-0.825 0.212-1.676 0.318-2.553 0.318-1.479 0-2.874-0.278-4.183-0.835-1.296-0.557-2.435-1.333-3.418-2.327-0.969-0.995-1.735-2.175-2.298-3.541-0.563-1.379-0.845-2.891-0.845-4.535 0-1.684 0.282-3.223 0.845-4.615s1.329-2.579 2.298-3.561c0.982-0.981 2.121-1.744 3.418-2.288 1.309-0.544 2.704-0.816 4.183-0.816 0.877 0 1.735 0.106 2.573 0.318s1.63 0.517 2.377 0.915c0.759 0.398 1.467 0.889 2.121 1.472 0.655 0.57 1.231 1.213 1.729 1.93l-10.057 12.273zM72.335 14.747c-0.249-0.093-0.498-0.152-0.746-0.179-0.236-0.027-0.485-0.040-0.746-0.040-0.733 0-1.427 0.139-2.082 0.418-0.642 0.265-1.205 0.65-1.689 1.154-0.471 0.504-0.845 1.114-1.12 1.83-0.275 0.703-0.412 1.499-0.412 2.387 0 0.199 0.006 0.424 0.019 0.676 0.026 0.252 0.059 0.511 0.098 0.776 0.053 0.252 0.111 0.497 0.177 0.736s0.151 0.451 0.255 0.637l6.246-8.394z"></path>
<path fill="#fff" style="fill: var(--color1, #fff)" d="M102.563 31.158h-1.296l-2.082-2.924c-0.511 0.464-1.054 0.902-1.63 1.313-0.563 0.398-1.159 0.749-1.787 1.054-0.629 0.292-1.277 0.524-1.945 0.696-0.655 0.173-1.322 0.259-2.003 0.259-1.479 0-2.874-0.252-4.183-0.756-1.296-0.504-2.435-1.233-3.418-2.188-0.969-0.968-1.735-2.148-2.298-3.541s-0.845-2.977-0.845-4.754c0-1.658 0.282-3.176 0.845-4.555 0.563-1.392 1.329-2.586 2.298-3.581 0.982-0.995 2.121-1.764 3.418-2.308 1.309-0.557 2.704-0.835 4.183-0.835 0.681 0 1.355 0.086 2.023 0.259s1.316 0.411 1.945 0.716c0.629 0.305 1.224 0.663 1.787 1.074 0.576 0.411 1.113 0.855 1.611 1.333l2.082-2.526h1.296v21.264zM97.162 20.317c0-0.743-0.144-1.459-0.432-2.148-0.275-0.703-0.655-1.32-1.139-1.85-0.485-0.544-1.054-0.975-1.709-1.293-0.642-0.332-1.329-0.497-2.062-0.497s-1.427 0.126-2.082 0.378c-0.642 0.252-1.205 0.623-1.689 1.114-0.471 0.491-0.845 1.101-1.12 1.83-0.275 0.716-0.412 1.538-0.412 2.467s0.137 1.757 0.412 2.486c0.275 0.716 0.648 1.32 1.12 1.81 0.485 0.491 1.047 0.862 1.689 1.114 0.655 0.252 1.349 0.378 2.082 0.378s1.421-0.159 2.062-0.477c0.655-0.332 1.224-0.762 1.709-1.293 0.485-0.544 0.864-1.16 1.139-1.85 0.288-0.703 0.432-1.426 0.432-2.168z"></path>
<path fill="#fff" style="fill: var(--color1, #fff)" d="M133.419 31.158h-5.342v-13.527c0-0.371-0.072-0.723-0.216-1.054-0.131-0.332-0.321-0.623-0.57-0.875s-0.537-0.444-0.864-0.577c-0.327-0.146-0.674-0.219-1.041-0.219s-0.714 0.073-1.041 0.219c-0.314 0.133-0.596 0.325-0.845 0.577-0.236 0.252-0.426 0.544-0.57 0.875-0.131 0.332-0.196 0.683-0.196 1.054v13.526h-5.362v-13.526c0-0.371-0.072-0.723-0.216-1.054-0.131-0.332-0.321-0.623-0.57-0.875s-0.537-0.444-0.864-0.577c-0.327-0.146-0.674-0.219-1.041-0.219s-0.714 0.073-1.041 0.219c-0.314 0.133-0.596 0.325-0.845 0.577-0.235 0.252-0.425 0.544-0.57 0.875-0.131 0.332-0.196 0.683-0.196 1.054v13.526h-5.362v-21.304h1.296l1.454 1.631c0.746-0.637 1.565-1.127 2.455-1.472 0.903-0.358 1.84-0.537 2.809-0.537 0.982 0 1.938 0.186 2.868 0.557 0.943 0.371 1.768 1.014 2.475 1.93 0.327-0.451 0.701-0.835 1.12-1.154s0.858-0.577 1.316-0.776c0.471-0.199 0.956-0.338 1.453-0.418 0.498-0.093 0.989-0.139 1.473-0.139 1.113 0 2.154 0.212 3.123 0.637 0.982 0.424 1.833 1.008 2.553 1.75 0.733 0.729 1.31 1.591 1.729 2.586s0.629 2.056 0.629 3.183v13.526z"></path>
<path fill="#fff" style="fill: var(--color1, #fff)" d="M159.444 2.633l-9.251 28.525h-5.637l-9.212-28.525h6.403l5.618 19.037 5.637-19.037h6.442z"></path>
<path fill="#fff" style="fill: var(--color1, #fff)" d="M167.909 4.065c0 0.504-0.098 0.975-0.295 1.412-0.183 0.438-0.439 0.822-0.766 1.154-0.327 0.318-0.714 0.577-1.159 0.776-0.432 0.186-0.897 0.278-1.394 0.278s-0.969-0.093-1.414-0.278c-0.432-0.199-0.812-0.458-1.139-0.776-0.314-0.332-0.57-0.716-0.766-1.154-0.183-0.438-0.275-0.908-0.275-1.412 0-0.491 0.092-0.955 0.275-1.392 0.197-0.451 0.452-0.835 0.766-1.154 0.327-0.332 0.707-0.59 1.139-0.776 0.445-0.199 0.917-0.298 1.414-0.298s0.962 0.099 1.394 0.298c0.445 0.186 0.831 0.444 1.159 0.776 0.327 0.318 0.583 0.703 0.766 1.154 0.197 0.438 0.295 0.902 0.295 1.392zM166.986 31.158h-5.401v-21.304h5.401v21.304z"></path>
<path fill="#fff" style="fill: var(--color1, #fff)" d="M192.147 20.317c0 1.671-0.282 3.196-0.845 4.575s-1.329 2.566-2.298 3.561c-0.969 0.981-2.108 1.744-3.418 2.288-1.296 0.544-2.691 0.815-4.183 0.815-1.48 0-2.874-0.278-4.184-0.835-1.296-0.557-2.435-1.333-3.417-2.327-0.969-0.995-1.735-2.175-2.298-3.541-0.563-1.379-0.845-2.891-0.845-4.535v-18.937h5.382v9.946c0.288-0.371 0.635-0.703 1.041-0.995 0.419-0.292 0.864-0.53 1.335-0.716 0.485-0.186 0.982-0.325 1.493-0.418 0.511-0.106 1.008-0.159 1.493-0.159 1.493 0 2.887 0.285 4.183 0.855 1.31 0.557 2.449 1.339 3.418 2.347s1.735 2.201 2.298 3.581c0.563 1.366 0.845 2.864 0.845 4.496zM186.745 20.317c0-0.822-0.144-1.585-0.432-2.288-0.275-0.716-0.655-1.333-1.139-1.85s-1.054-0.922-1.709-1.213c-0.642-0.292-1.329-0.438-2.062-0.438s-1.427 0.166-2.082 0.497c-0.642 0.318-1.205 0.749-1.689 1.293-0.485 0.53-0.864 1.147-1.139 1.85-0.275 0.69-0.412 1.406-0.412 2.148 0 0.822 0.137 1.585 0.412 2.288s0.655 1.313 1.139 1.83c0.485 0.517 1.047 0.928 1.689 1.233 0.655 0.292 1.349 0.438 2.082 0.438s1.421-0.146 2.062-0.438c0.655-0.305 1.224-0.716 1.709-1.233s0.864-1.127 1.139-1.83c0.288-0.703 0.432-1.465 0.432-2.288z"></path>
<path fill="#fff" style="fill: var(--color1, #fff)" d="M203.499 25.946c0.21 0.066 0.419 0.113 0.629 0.139 0.21 0.013 0.419 0.020 0.629 0.020 0.524 0 1.028-0.073 1.513-0.219s0.936-0.351 1.355-0.617c0.432-0.278 0.812-0.61 1.139-0.995 0.34-0.398 0.615-0.835 0.825-1.313l3.928 3.998c-0.498 0.716-1.074 1.359-1.728 1.929-0.642 0.57-1.342 1.054-2.102 1.452-0.746 0.398-1.538 0.696-2.377 0.895-0.825 0.212-1.676 0.318-2.553 0.318-1.479 0-2.874-0.278-4.183-0.835-1.296-0.557-2.435-1.333-3.418-2.327-0.969-0.995-1.735-2.175-2.298-3.541-0.563-1.379-0.845-2.891-0.845-4.535 0-1.684 0.282-3.223 0.845-4.615s1.329-2.579 2.298-3.561c0.982-0.981 2.121-1.744 3.418-2.288 1.309-0.544 2.704-0.816 4.183-0.816 0.877 0 1.735 0.106 2.573 0.318s1.63 0.517 2.377 0.915c0.759 0.398 1.467 0.889 2.121 1.472 0.655 0.57 1.231 1.213 1.728 1.93l-10.056 12.273zM206.249 14.747c-0.249-0.093-0.498-0.152-0.746-0.179-0.236-0.027-0.485-0.040-0.746-0.040-0.733 0-1.427 0.139-2.082 0.418-0.642 0.265-1.205 0.65-1.689 1.154-0.471 0.504-0.845 1.114-1.12 1.83-0.275 0.703-0.413 1.499-0.413 2.387 0 0.199 0.007 0.424 0.020 0.676 0.026 0.252 0.059 0.511 0.098 0.776 0.053 0.252 0.111 0.497 0.177 0.736s0.151 0.451 0.255 0.637l6.246-8.394z"></path>
</symbol>
<symbol id="icon-logo" viewBox="0 0 31 32">
<path fill="#e60000" style="fill: var(--color2, #e60000)" d="M25.814 12.932c-0.218-6.819-5.743-12.322-12.585-12.488-0.176 0-0.321 0.135-0.321 0.311l-0.010 4.581c0 0.228-0.176 0.404-0.404 0.415-6.821 0.207-12.326 5.741-12.492 12.581 0 0.176 0.135 0.321 0.311 0.321l4.572 0.010c0.228 0 0.404 0.176 0.415 0.404 0.218 6.819 5.754 12.322 12.585 12.488 0.176 0 0.321-0.135 0.321-0.311l0.010-4.581c0-0.228 0.176-0.404 0.404-0.415 6.821-0.218 12.326-5.752 12.492-12.581 0-0.176-0.135-0.321-0.311-0.321l-4.572-0.010c-0.228 0-0.404-0.176-0.415-0.404zM17.759 26.218c-3.877-0.228-6.987-3.378-7.132-7.275-0.010-0.166-0.145-0.301-0.311-0.301l-4.561-0.010c-0.238 0-0.425-0.197-0.415-0.435 0.228-3.876 3.38-6.985 7.278-7.13 0.166-0.010 0.301-0.145 0.301-0.311l0.010-4.57c0-0.238 0.197-0.425 0.435-0.415 3.877 0.228 6.987 3.378 7.132 7.275 0.010 0.166 0.145 0.301 0.311 0.301l4.561 0.010c0.238 0 0.425 0.197 0.415 0.435-0.228 3.98-3.535 7.14-7.568 7.14l-0.010 4.871c-0.010 0.238-0.207 0.425-0.446 0.415z"></path>
<path fill="#fff" style="fill: var(--color1, #fff)" d="M12.771 13.243c0-0.627 0.672-1.025 1.222-0.722l5.074 2.791c0.57 0.313 0.57 1.132 0 1.445l-5.074 2.791c-0.549 0.302-1.222-0.095-1.222-0.722v-5.582z"></path>
</symbol>
<symbol id="icon-search" viewBox="0 0 32 32">
<path fill="none" stroke="#fff" style="stroke: var(--color1, #fff)" stroke-linejoin="round" stroke-linecap="butt" stroke-miterlimit="4" stroke-width="2.4612" d="M1.231 13.538c0-6.797 5.51-12.308 12.308-12.308s12.308 5.51 12.308 12.308v0c0 6.797-5.51 12.308-12.308 12.308s-12.308-5.51-12.308-12.308v0zM30.769 30.769l-8.528-8.528"></path>
</symbol>
<symbol id="icon-notification" viewBox="0 0 30 32">
<path fill="none" stroke="#fff" style="stroke: var(--color1, #fff)" stroke-linejoin="round" stroke-linecap="butt" stroke-miterlimit="4" stroke-width="2.4615" d="M19.566 24.34c0.148 0.448 0.233 0.963 0.233 1.498 0 2.719-2.201 4.925-4.919 4.931h-0.001c-0 0-0.001 0-0.002 0-2.719 0-4.923-2.204-4.923-4.923 0-0.538 0.086-1.056 0.246-1.541l-0.010 0.035M24.726 11.157v1.15c0 3.801 1.434 7.265 3.791 9.882-2.596 0.992-5.621 1.747-8.761 2.131l-0.189 0.019c-1.407 0.176-3.036 0.277-4.688 0.277s-3.28-0.101-4.88-0.296l0.192 0.019c-3.33-0.402-6.356-1.157-9.221-2.239l0.27 0.089c2.354-2.598 3.794-6.062 3.794-9.862 0-0.007 0-0.014-0-0.022v0.001-1.231c0-5.438 4.408-9.846 9.846-9.846s9.846 4.408 9.846 9.846v0 0.082z"></path>
</symbol>
<symbol id="icon-mobileopen" viewBox="0 0 48 32">
<path fill="#fff" style="fill: var(--color1, #fff)" d="M0 2c0-1.105 0.895-2 2-2v0h44c1.105 0 2 0.895 2 2s-0.895 2-2 2v0h-44c-1.105 0-2-0.895-2-2v0zM0 16c0-1.105 0.895-2 2-2v0h44c1.105 0 2 0.895 2 2s-0.895 2-2 2v0h-44c-1.105 0-2-0.895-2-2v0zM22 30c0-1.105 0.895-2 2-2v0h22c1.105 0 2 0.895 2 2s-0.895 2-2 2v0h-22c-1.105 0-2-0.895-2-2v0z"></path>
</symbol>
<symbol id="icon-play" viewBox="0 0 32 32">
<path fill="#fff" style="fill: var(--color1, #fff)" d="M6 7.537c0-1.901 2.039-3.107 3.705-2.191l15.387 8.463c1.727 0.951 1.727 3.432 0 4.381l-15.385 8.463c-1.667 0.917-3.705-0.289-3.705-2.191v-16.925z"></path>
</symbol>
<symbol id="icon-arrow-left" viewBox="0 0 32 32">
<path fill="none" stroke="#fff" style="stroke: var(--color1, #fff)" stroke-linejoin="round" stroke-linecap="round" stroke-miterlimit="4" stroke-width="2" d="M26 16h-20M6 16l9 9M6 16l9-9"></path>
</symbol>
<symbol id="icon-arrow-right" viewBox="0 0 32 32">
<path fill="none" stroke="#fff" style="stroke: var(--color1, #fff)" stroke-linejoin="round" stroke-linecap="round" stroke-miterlimit="4" stroke-width="2" d="M18 6l10 10M28 16l-10 10M28 16h-24"></path>
</symbol>
<symbol id="icon-tablet" viewBox="0 0 32 32">
<path fill="#e60000" style="fill: var(--color1, #e60000)" d="M5.12 15.666v-11.562c0-1.79 1.034-2.824 2.816-2.824h16.33c1.781 0 2.816 1.034 2.816 2.824v23.177c0 1.755-1.044 2.798-2.79 2.798h-16.374c-1.746 0-2.79-1.053-2.79-2.798-0.008-3.869-0.008-7.746-0.008-11.615zM13.605 26.67h4.984v-1.602h-4.984v1.602z"></path>
<path fill="#e60000" style="fill: var(--color1, #e60000)" d="M5.121 15.666c0 3.869 0 7.746 0.008 11.615 0 1.746 1.044 2.798 2.79 2.798h16.374c1.746 0 2.79-1.043 2.79-2.798v-23.177c0-1.79-1.035-2.824-2.816-2.824h-16.33c-1.782 0-2.816 1.034-2.816 2.824v11.562zM5.92 9.886v-5.782q0-1.016 0.509-1.523 0.504-0.502 1.507-0.502h16.33q1.003 0 1.507 0.502 0.509 0.506 0.509 1.523v23.177q0 1.004-0.502 1.504-0.498 0.494-1.488 0.494h-16.374q-0.99 0-1.488-0.495-0.502-0.499-0.502-1.503l-0.008-5.806v-11.589zM19.389 27.47v-3.201h-6.584v3.202h6.584zM17.789 26.67h-4.184v-1.601h4.984v1.602h-0.8z"></path>
</symbol>
<symbol id="icon-phone" viewBox="0 0 32 32">
<path fill="#e60000" style="fill: var(--color1, #e60000)" d="M8.32 15.68c0-3.714-0.009-7.438 0-11.153 0-1.53 0.774-2.645 2.132-3.086 0.293-0.097 0.631-0.152 0.981-0.152 0.012 0 0.024 0 0.037 0l-0.002-0c3.139-0.010 6.278-0.010 9.408 0 1.826 0.008 3.158 1.33 3.158 3.147 0.008 7.502 0.008 14.994 0 22.495 0 1.817-1.331 3.148-3.149 3.148-3.102 0.009-6.206 0.009-9.309 0-1.943 0-3.238-1.277-3.247-3.238-0.018-3.724-0.009-7.438-0.009-11.162zM16.181 3.898h-1.843c-0.486 0.008-0.756 0.234-0.765 0.63-0.009 0.405 0.242 0.683 0.71 0.683 1.259 0.018 2.51 0.018 3.768 0 0.45-0.009 0.756-0.314 0.738-0.683-0.018-0.378-0.315-0.63-0.774-0.63h-1.835zM16.181 24.863c-0.738 0-1.322 0.584-1.313 1.304s0.611 1.304 1.331 1.296c0.703-0.012 1.268-0.585 1.268-1.289 0-0.002 0-0.005-0-0.007v0c0.009-0.746-0.549-1.304-1.286-1.304z"></path>
<path fill="#e60000" style="fill: var(--color1, #e60000)" d="M8.32 15.68l-0.002-3.716c-0.002-2.48-0.004-4.96 0.002-7.437 0-1.53 0.774-2.645 2.132-3.086 0.293-0.097 0.631-0.152 0.981-0.152 0.012 0 0.024 0 0.037 0l-0.002-0c3.139-0.010 6.278-0.010 9.408 0 1.826 0.008 3.158 1.33 3.158 3.147 0.008 7.502 0.008 14.994 0 22.495 0 1.817-1.331 3.148-3.149 3.148q-2.327 0.006-4.654 0.006t-4.654-0.006c-1.943 0-3.238-1.277-3.247-3.238-0.014-2.793-0.011-5.58-0.010-8.37l0.001-2.792zM9.117 10.104l0.003 5.576-0.002 5.58 0.011 5.578c0.002 0.386 0.063 0.735 0.184 1.048 0.095 0.245 0.224 0.461 0.387 0.646 0.029 0.033 0.060 0.065 0.091 0.096s0.065 0.062 0.098 0.091c0.185 0.162 0.4 0.289 0.646 0.382 0.311 0.118 3.761 0.178 1.042 0.178l4.718 0.006 4.59-0.006c0.345 0 0.665-0.059 0.96-0.178 0.186-0.075 0.355-0.171 0.509-0.288 0.078-0.059 0.152-0.123 0.222-0.192s0.133-0.143 0.192-0.221c0.117-0.154 0.213-0.324 0.287-0.51 0.119-0.295 0.179-8.114 0.178-0.96l0.007-11.246-0.006-11.248c0-0.344-0.059-0.663-0.178-0.958-0.073-0.18-0.166-0.346-0.279-0.496-0.061-0.082-0.129-0.159-0.202-0.231-0.061-0.062-0.127-0.119-0.196-0.173-0.161-0.126-0.34-0.229-0.538-0.308-0.298-0.12-3.755-0.181-0.965-0.182h-9.408c-0.285 0-0.542 0.038-0.77 0.114-0.404 0.131-0.732 0.332-0.984 0.604-0.065 0.070-0.125 0.145-0.18 0.224-0.276 0.4-3.454-0.61-0.414 1.496v0.001l-0.003 5.576zM16.181 3.098h1.835c0.196 0 0.381 0.027 0.554 0.082 0.156 0.050 0.298 0.12 0.424 0.21 0.028 0.020 0.056 0.042 0.082 0.064 0.085 0.069 0.16 0.147 0.225 0.232 0.055 0.072 0.102 0.149 0.142 0.232 0.027 0.054 0.050 0.11 0.069 0.166 0.044 0.128 0.069 0.263 0.076 0.404 0.005 0.115-0.003 0.227-0.024 0.336-0.017 0.091-0.044 0.181-0.080 0.268-0.031 0.078-0.070 0.151-0.114 0.221-0.062 0.098-0.137 0.189-0.224 0.271-0.044 0.042-0.090 0.080-0.138 0.116-0.109 0.081-0.238 0.15-0.359 0.198l-0.028 0.010c-0.175 0.065-0.361 0.099-0.558 0.102-1.264 0.018-2.524 0.018-3.779 0-0.21 0-0.404-0.033-0.584-0.098-0.137-0.050-0.261-0.117-0.373-0.202-0.051-0.038-0.099-0.080-0.144-0.126-0.057-0.057-0.109-0.118-0.154-0.184-0.069-0.1-0.126-0.212-0.168-0.328l-0.003-0.010c-0.061-0.173-0.089-0.358-0.085-0.555 0.004-0.194 0.046-0.384 0.11-0.54l0.014-0.030c0.043-0.097 0.095-0.185 0.157-0.266s0.133-0.155 0.213-0.222c0.029-0.025 0.059-0.047 0.090-0.069 0.261-0.182-4.191-1.31 0.966-0.284h1.858zM18.016 3.898h-3.678c-0.486 0.008-0.756 0.234-0.765 0.63-0.009 0.405 0.242 0.683 0.71 0.683 1.259 0.018 2.51 0.018 3.768 0 0.45-0.009 0.756-0.314 0.738-0.683-0.018-0.378-0.315-0.63-0.774-0.63zM14.112 25.722c0.027-0.126 0.065-0.249 0.115-0.37 0.049-0.118 0.108-0.23 0.178-0.336 0.079-0.121 0.171-0.234 0.275-0.338 0.094-0.093 0.195-0.177 0.303-0.25 0.116-0.079 0.24-0.146 0.373-0.202 0.111-0.046 0.224-0.083 0.34-0.11 0.158-0.036 0.319-0.054 0.485-0.054 0.199 0 0.391 0.025 0.575 0.076 0.082 0.023 0.163 0.050 0.242 0.082 0.141 0.059 0.273 0.131 0.396 0.216 0.099 0.069 0.192 0.148 0.278 0.235s0.164 0.181 0.233 0.282c0.084 0.123 0.155 0.256 0.212 0.398 0.045 0.115 0.080 0.231 0.105 0.35 0.032 0.151 0.047 0.306 0.046 0.464 0 0.153-0.016 0.301-0.048 0.446-0.027 0.124-0.065 0.244-0.114 0.362-0.051 0.123-0.113 0.239-0.184 0.348-0.074 0.112-0.159 0.217-0.255 0.315-0.1 0.102-0.208 0.192-0.324 0.27-0.103 0.070-0.213 0.13-0.33 0.181-0.121 0.053-0.244 0.093-0.37 0.122-0.141 0.033-0.286 0.050-0.434 0.051-0.142 0.002-0.281-0.010-0.418-0.037-0.138-0.026-0.273-0.066-0.406-0.12-0.118-0.049-0.23-0.107-0.336-0.174-0.121-0.077-0.234-0.167-0.339-0.27-0.107-0.104-0.202-0.216-0.283-0.337-0.069-0.103-0.129-0.212-0.179-0.326-0.058-0.131-0.102-0.266-0.132-0.403-0.030-0.136-0.046-0.275-0.047-0.418-0.002-0.156-4.691-8.882 0.044-0.456zM16.181 24.863c-0.738 0-1.322 0.584-1.313 1.304s0.611 1.304 1.331 1.296c0.703-0.012 1.268-0.585 1.268-1.289 0-0.002 0-0.005-0-0.007v0c0.009-0.746-0.549-1.304-1.286-1.304z"></path>
</symbol>
<symbol id="icon-tv" viewBox="0 0 32 32">
<path fill="#e60000" style="fill: var(--color1, #e60000)" d="M2.24 19.061v-12.397c0-0.849 0.366-1.224 1.232-1.224h25.225c0.857 0 1.232 0.375 1.232 1.214v12.398c-9.232 0.008-18.43 0.008-27.689 0.008zM14.116 15.291c1.544-0.893 3.009-1.742 4.544-2.626-1.544-0.893-3.026-1.742-4.544-2.626v5.251zM26.152 25.286c-0.224-0.688-0.518-1.348-0.813-2.098h0.001c1.205 0 2.339 0 3.455-0.009 0.607-0.010 1.071-0.349 1.098-0.894 0.030-0.518 0.023-1.042 0.016-1.568-0.004-0.236-0.008-0.472-0.008-0.71h-27.67v1.894c0 0.902 0.375 1.278 1.268 1.278h3.312c-0.277 0.696-0.535 1.339-0.794 1.982-0.107 0.286-0.152 0.572 0.206 0.706 0.348 0.134 0.518-0.098 0.634-0.384 0.268-0.661 0.554-1.313 0.795-1.983 0.098-0.258 0.232-0.321 0.491-0.321q3.971 0.006 7.942 0.006 3.972 0 7.942-0.006c0.278 0 0.394 0.089 0.482 0.339 0.232 0.616 0.482 1.214 0.733 1.822 0.044 0.098 0.080 0.188 0.125 0.286 0.116 0.258 0.357 0.384 0.571 0.232 0.143-0.098 0.268-0.411 0.214-0.572zM19.455 21.767l-4.519-0.002c-0.268-0.001-0.586-0.002-0.904-0.002-0.476 0-0.952 0.002-1.428 0.005l0.073-0c-0.303 0-0.598-0.036-0.606-0.42-0.010-0.393 0.286-0.474 0.616-0.474h6.777c0.322 0 0.625 0.072 0.625 0.464 0 0.411-0.322 0.43-0.634 0.43z"></path>
<path fill="#e60000" style="fill: var(--color1, #e60000)" d="M25.662 23.986l-0.047-0.124c0.181 0.422 0.347 0.852 0.538 1.423 0.054 0.161-0.071 0.474-0.214 0.572-0.214 0.152-0.455 0.026-0.571-0.232-0.045-0.098-0.081-0.188-0.125-0.286-0.25-0.607-0.501-1.206-0.733-1.822-0.089-0.25-0.205-0.339-0.482-0.339-2.647 0.004-5.294 0.006-7.942 0.006-2.647 0-5.294-0.002-7.942-0.006-0.259 0-0.393 0.062-0.491 0.321-0.242 0.67-0.527 1.322-0.795 1.983-0.116 0.286-0.286 0.518-0.634 0.384-0.358-0.134-0.313-0.42-0.206-0.706l-0.804 2.198c0.27-0.653 0.538-1.308 1.599-4.18h-3.312c-0.893 0-1.268-0.375-1.268-1.278v-1.894h27.67c0 0.238 0.004 0.474 0.008 0.71 0.007 0.526 0.014 1.050-0.016 1.568-0.027 0.545-0.491 0.884-1.098 0.894-0.847 0.006-1.704 0.008-2.594 0.008h-0.862c0.109 0.277 0.218 0.542 0.322 0.8zM24.207 22.386h1.133l3.453-0.008q0.253-0.004 0.294-0.099 0.007-0.016 0.008-0.034 0.028-0.478 0.016-1.438h-8.32q0.098 0.234 0.098 0.531 0 0.44-0.208 0.731-0.135 0.187-0.355 0.312l3.701-0.003q0.094 0 0.181 0.008zM11.803 22.381q-0.15-0.083-0.258-0.205-0.262-0.294-0.274-0.81-0.007-0.314 0.096-0.558h-8.337v1.094q0 0.243 0.122 0.362 0.117 0.115 0.346 0.115h4.495l-0.002 0.006q0.073-0.006 0.15-0.006l3.661 0.002zM2.24 18.261v-11.597c0-0.848 0.366-1.224 1.233-1.224h25.224c0.857 0 1.232 0.375 1.232 1.214v12.398c-8.966 0.009-17.899 0.009-26.889 0.009h-0.8v-0.8zM3.040 18.261l26.090-0.009v-11.598q0-0.198-0.1-0.302-0.108-0.112-0.333-0.112h-25.224q-0.221 0-0.329 0.11-0.104 0.106-0.104 0.314v11.597zM13.316 8.652v8.026l6.946-4.013-3.982-2.297-2.963-1.717zM14.916 14.829l-0.8 0.462v-5.251c0.267 0.156 0.534 0.31 0.8 0.464 0.98 0.568 1.952 1.128 2.944 1.7 0.266 0.152 0.532 0.306 0.8 0.462l-0.8 0.462c-0.986 0.569-1.954 1.129-2.944 1.702zM16.062 21.767h3.392c0.313 0 0.634-0.018 0.634-0.429 0-0.393-0.304-0.464-0.624-0.464h-6.778c-0.33 0-0.626 0.080-0.616 0.472 0.008 0.384 0.303 0.421 0.606 0.421 0.402-0.003 0.878-0.004 1.355-0.004 0.318 0 0.635 0.001 0.953 0.002l-0.049-0 1.126 0.002z"></path>
</symbol>
<symbol id="icon-laptop" viewBox="0 0 32 32">
<path fill="#e60000" style="fill: var(--color1, #e60000)" d="M26.51 4.96h-20.8c-1.056 0-1.349 0.292-1.349 1.315v11.013c0 1.014 0.303 1.316 1.3 1.316h20.848c0.997 0 1.3-0.302 1.3-1.316v-11.013c0-1.013-0.303-1.315-1.299-1.315zM2.7 26.4h26.78c0.234 0 0.488-0.010 0.714-0.088 0.518-0.175 0.674-0.604 0.41-1.082-0.928-1.696-1.866-3.382-2.804-5.067-0.224-0.39-0.546-0.585-0.996-0.585h-21.446c-0.45 0-0.772 0.194-0.986 0.584 1.246-2.535 0.315-0.878-0.611 0.783l-2.193 4.285c-0.264 0.478-0.098 0.906 0.42 1.082 0.215 0.078 0.469 0.088 0.713 0.088zM16.69 24.453c-0.183-0.001-0.399-0.002-0.615-0.002s-0.432 0.001-0.648 0.002l0.033-0c-0.411 0.002-0.824 0.005-1.241-0.002-0.626-0.010-1.056-0.4-1.066-0.955-0.010-0.575 0.43-0.984 1.085-0.984 1.231-0.010 2.472-0.010 3.702 0 0.626 0.010 1.056 0.399 1.066 0.954 0.010 0.566-0.43 0.974-1.085 0.984-0.41 0.007-0.821 0.005-1.231 0.002z"></path>
<path fill="#e60000" style="fill: var(--color1, #e60000)" d="M5.71 4.96c-1.055 0-1.349 0.292-1.349 1.315v11.013c0 1.014 0.303 1.316 1.3 1.316h20.849c0.996 0 1.299-0.302 1.299-1.316v-11.013c0-1.013-0.303-1.315-1.299-1.315h-20.8zM5.71 5.76h20.8q0.242 0 0.366 0.12 0.134 0.13 0.134 0.395v11.013q0 0.266-0.134 0.395-0.124 0.12-0.366 0.12h-20.849q-0.242 0-0.366-0.12-0.134-0.13-0.134-0.395v-11.013q0-0.242 0.121-0.37 0.137-0.145 0.428-0.145zM29.479 26.4c0.234 0 0.489-0.010 0.714-0.088 0.518-0.175 0.674-0.604 0.41-1.082-0.928-1.695-1.866-3.382-2.804-5.068-0.224-0.39-0.546-0.584-0.996-0.584h-21.445c-0.45 0-0.772 0.194-0.986 0.585-0.938 1.686-1.876 3.371-2.804 5.067-0.264 0.478-0.098 0.906 0.42 1.082 0.215 0.078 0.469 0.088 0.713 0.088h26.779zM29.479 25.6h-26.779q-0.272 0-0.406-0.031l2.778-5.020q0.049-0.088 0.124-0.13 0.070-0.040 0.162-0.040h21.445q0.097 0 0.17 0.042 0.075 0.043 0.126 0.13l2.778 5.021q-0.132 0.029-0.398 0.029zM16.686 25.253l-0.614-0.002-0.609 0.002c-0.554 0.003-0.973 0.003-1.257-0.002-0.646-0.010-1.124-0.179-1.432-0.507-0.271-0.289-0.411-0.7-0.42-1.234-0.005-0.291 0.049-0.554 0.161-0.79 0.091-0.193 0.222-0.367 0.392-0.522 0.108-0.099 0.225-0.182 0.349-0.251 0.284-0.156 1.847-0.235 0.982-0.234l1.848-0.008 1.858 0.007c0.653 0.011 1.135 0.181 1.444 0.512 0.269 0.289 0.409 0.698 0.418 1.23 0.005 0.281-0.045 0.536-0.152 0.766-0.092 0.199-0.225 0.379-0.401 0.539-0.103 0.095-0.215 0.176-0.335 0.243-0.284 0.162-0.612 0.245-0.984 0.25-0.279 0.004-6.257-8.413-1.247 0.002h-0.001zM16.075 24.451c0.205 0 0.41 0 0.616 0.002 0.41 0.002 0.82 0.005 1.23-0.002 0.654-0.010 1.094-0.419 1.085-0.984-0.010-0.556-0.44-0.946-1.066-0.956-1.23-0.010-2.472-0.010-3.702 0-0.654 0-1.094 0.41-1.085 0.984 0.010 0.556 0.44 0.946 1.066 0.956 0.417 0.006 0.83 0.004 1.241 0.002l0.615-0.002z"></path>
</symbol>
<symbol id="icon-game" viewBox="0 0 32 32">
<path fill="#e60000" style="fill: var(--color1, #e60000)" d="M15.211 8.55h1.898c0-0.298 0.002-0.589 0.004-0.877 0.004-0.562 0.008-1.11-0.004-1.662-0.019-0.498-0.422-0.862-0.902-0.891-0.48-0.019-0.958 0.316-0.987 0.795-0.013 0.357-0.021 0.777-0.021 1.199 0 0.224 0.002 0.447 0.006 0.669l-0.001-0.033c0.002 0.266 0.006 0.532 0.006 0.801zM1.76 20.95c-0.039-1.060 0.258-2.051 0.557-3.044 0.068-0.227 0.136-0.455 0.2-0.684 0.394-1.408 0.816-2.817 1.228-4.226 1.093-3.804 5.906-5.366 8.849-2.702 0.125 0.115 0.336 0.182 0.508 0.182q1.56 0.007 3.122 0.007h0.042q1.438 0 2.876-0.008c0.179-0.003 0.342-0.068 0.471-0.173l-0.001 0.001c2.867-2.626 7.574-1.16 8.744 2.501 0.747 2.338 1.418 4.696 2.042 7.072 0.72 2.712-1.083 5.578-3.816 6.21-2.272 0.528-4.745-0.747-5.733-2.98-0.594-1.332-1.514-2.3-2.943-2.654-1.304-0.316-2.636-0.326-3.921 0.134-1.266 0.45-2.128 1.36-2.666 2.597-0.584 1.36-1.592 2.31-3 2.779-3.174 1.054-6.348-1.102-6.558-4.437-0.003-0.064-0.004-0.14-0.004-0.216 0-0.059 0.001-0.118 0.003-0.177l-0 0.009 0.002-0.192zM8.481 14.923c-0.122 0-0.238-0.002-0.35-0.002-0.211-0.002-0.408-0.004-0.609 0.002-0.576 0.029-0.978 0.45-0.959 0.977 0.010 0.508 0.412 0.901 0.968 0.93 0.194 0.006 0.389 0.005 0.6 0.002 0.111-0.001 0.226-0.002 0.35-0.002v0.853c0.010 0.652 0.402 1.074 0.968 1.064 0.556-0.010 0.93-0.422 0.94-1.045 0.006-0.182 0.004-0.365 0.002-0.558l-0.002-0.314c0.128 0 0.246 0.002 0.356 0.002 0.205 0.002 0.387 0.004 0.574-0.002 0.576-0.019 0.988-0.422 0.988-0.958 0-0.528-0.413-0.93-0.988-0.949-0.196-0.006-0.392-0.005-0.596-0.002-0.106 0.001-0.214 0.002-0.324 0.002 0-0.12 0.001-0.232 0.002-0.341 0.002-0.204 0.004-0.392-0.002-0.579-0.019-0.585-0.422-0.997-0.95-0.997-0.536-0.010-0.939 0.402-0.958 0.978-0.014 0.212-0.013 0.418-0.011 0.662l0.002 0.277zM22.037 15.824c-0.306 0.306-0.527 0.507-0.738 0.728-0.451 0.47-0.47 1.044-0.058 1.447 0.402 0.392 0.949 0.364 1.409-0.077 0.23-0.221 0.432-0.46 0.738-0.786 0.259 0.306 0.45 0.565 0.671 0.795 0.441 0.44 0.997 0.46 1.4 0.067 0.393-0.384 0.393-0.958-0.038-1.409-0.23-0.24-0.489-0.441-0.786-0.718 0.326-0.288 0.576-0.489 0.796-0.719 0.422-0.44 0.431-1.016 0.029-1.408-0.384-0.374-0.94-0.365-1.371 0.048-0.24 0.23-0.45 0.488-0.71 0.776-0.258-0.278-0.45-0.489-0.652-0.69-0.489-0.488-1.064-0.536-1.476-0.125s-0.384 0.987 0.105 1.476c0.192 0.192 0.422 0.364 0.681 0.594z"></path>
<path fill="#e60000" style="fill: var(--color1, #e60000)" d="M17.11 8.55c0-0.298 0.002-0.589 0.004-0.877 0.004-0.562 0.008-1.11-0.004-1.662-0.020-0.498-0.422-0.862-0.902-0.891-0.479-0.019-0.958 0.316-0.987 0.795-0.027 0.61-0.021 1.218-0.015 1.834 0.003 0.265 0.006 0.532 0.006 0.801h1.898zM16.314 7.75h-0.308v-0.009q-0.012-1.203 0.014-1.778 0-0.006 0.002-0.010 0.016-0.039 0.138-0.034 0.1 0.006 0.133 0.056 0.016 0.023 0.016 0.055 0.013 0.539 0.005 1.638v0.082zM1.76 20.95l-0.002 0.192c-0.002 0.128-0.005 0.255 0.002 0.383 0.211 3.334 3.384 5.49 6.558 4.437 1.41-0.47 2.416-1.418 3.001-2.779 0.537-1.236 1.4-2.146 2.666-2.597 1.285-0.46 2.617-0.45 3.921-0.134 1.429 0.354 2.349 1.322 2.944 2.654 0.987 2.233 3.461 3.507 5.733 2.98 2.732-0.632 4.534-3.498 3.816-6.21-0.624-2.376-1.294-4.734-2.042-7.072-1.17-3.66-5.877-5.126-8.744-2.501-0.127 0.105-0.29 0.169-0.469 0.173h-0.001q-1.438 0.006-2.876 0.007h-0.142q-1.51 0-3.022-0.008c-0.172 0-0.384-0.066-0.508-0.182-2.943-2.664-7.756-1.102-8.849 2.702-0.412 1.408-0.834 2.818-1.227 4.226-0.064 0.229-0.133 0.456-0.201 0.684-0.298 0.994-0.596 1.984-0.557 3.044zM2.56 20.936v-0.015q-0.034-0.928 0.522-2.784 0.139-0.462 0.205-0.698 0.294-1.053 0.914-3.16l0.311-1.058q0.336-1.172 1.078-1.962 0.816-0.869 2.122-1.276 1.344-0.419 2.503-0.122 0.986 0.253 1.84 1.026 0.145 0.134 0.314 0.222 0.322 0.167 0.73 0.167l3.169 0.007 2.874-0.008q0.342 0 0.626-0.128 0.206-0.094 0.382-0.254 0.824-0.754 1.781-1.013 1.136-0.307 2.461 0.084 1.298 0.382 2.119 1.228 0.726 0.747 1.080 1.856 1.036 3.238 2.030 7.031 0.19 0.715 0.126 1.408-0.086 0.947-0.646 1.853-0.541 0.874-1.32 1.384-0.616 0.405-1.382 0.582-1.584 0.368-2.746-0.173-1.302-0.606-2.074-2.352-0.748-1.676-2.040-2.496-0.652-0.414-1.442-0.611-1.961-0.475-3.701-0.048-0.346 0.085-0.682 0.206-0.794 0.283-1.43 0.772-1.080 0.832-1.7 2.26-0.4 0.931-1.089 1.534-0.605 0.53-1.431 0.805-1.096 0.364-2.096 0.187-0.829-0.146-1.592-0.663-0.758-0.514-1.202-1.224-0.542-0.868-0.616-2.029-0.004-0.090 0-0.319l0.002-0.205v-0.014zM8.482 14.123l0-0.010c0.002-0.049 0.005-0.097 0.008-0.129 0.019-0.575 0.422-0.987 0.958-0.978 0.528 0 0.93 0.412 0.95 0.997l-0-0.019c0.003 0.126 0.004 0.252 0.004 0.378 0 0.076-0.001 0.151-0.001 0.215v0.005c-0.002 0.109-0.002 0.221-0.002 0.341 0.11 0 0.218-0.002 0.323-0.003h0.002l-0.013 0c0.083-0.001 0.167-0.002 0.25-0.002s0.167 0.001 0.238 0.002l0.12 0.003c0.575 0.019 0.988 0.421 0.988 0.949 0 0.536-0.412 0.938-0.988 0.958l0.019-0c-0.125 0.003-0.251 0.004-0.377 0.004-0.076 0-0.151-0-0.215-0.001-0.11-0.001-0.228-0.002-0.356-0.002l0.002 0.314c0.002 0.168 0.004 0.328 0 0.486l-0.002 0.072c-0.010 0.623-0.384 1.035-0.94 1.045-0.566 0.010-0.958-0.412-0.968-1.064v-0.853c-0.123 0-0.238 0.002-0.35 0.002-0.157 0.002-0.304 0.003-0.45 0.002l-0.15-0.004c-0.556-0.029-0.958-0.422-0.968-0.93-0.019-0.526 0.383-0.948 0.958-0.977l-0.020 0c0.134-0.003 0.269-0.004 0.403-0.004 0.079 0 0.158 0 0.225 0.001h0.002c0.111 0.001 0.227 0.002 0.35 0.002l-0.002-0.277v-0.003c-0.001-0.19-0.002-0.356 0.004-0.52zM7.683 14.12q-0.106 0.001-0.186 0.003-0.939 0.047-1.37 0.539-0.393 0.448-0.363 1.267 0.014 0.76 0.4 1.182 0.43 0.472 1.326 0.518l0.19 0.004v0.050q0.009 0.609 0.283 1.054 0.088 0.142 0.202 0.267 0.225 0.245 0.503 0.379 0.354 0.171 0.793 0.164 0.797-0.014 1.226-0.418 0.486-0.457 0.501-1.414l0.002-0.082 0.155-0.003q0.913-0.030 1.352-0.502 0.408-0.438 0.408-1.256 0-0.808-0.402-1.243-0.44-0.474-1.358-0.504l-0.144-0.004-0.004-0.144q-0.030-0.927-0.509-1.368-0.435-0.402-1.24-0.402-0.808-0.014-1.245 0.381-0.478 0.432-0.512 1.354-0.006 0.078-0.008 0.178zM21.43 15.3c-0.026-0.023-0.050-0.046-0.074-0.070-0.489-0.489-0.518-1.064-0.105-1.476s0.987-0.363 1.476 0.125l0.001 0.001c0.034 0.034 0.067 0.068 0.103 0.103 0.166 0.17 0.334 0.355 0.549 0.586 0.194-0.216 0.362-0.416 0.535-0.6l0.002-0.002c0.055-0.059 0.112-0.116 0.172-0.174 0.431-0.413 0.987-0.422 1.371-0.048 0.402 0.392 0.393 0.968-0.029 1.408-0.062 0.064-0.125 0.126-0.192 0.188-0.174 0.161-0.369 0.323-0.603 0.531 0.219 0.205 0.418 0.369 0.6 0.537l0.003 0.003c0.062 0.057 0.123 0.117 0.183 0.179 0.431 0.45 0.431 1.025 0.038 1.409-0.403 0.393-0.959 0.373-1.4-0.067-0.054-0.056-0.106-0.114-0.158-0.174-0.16-0.186-0.318-0.39-0.514-0.622-0.22 0.233-0.386 0.423-0.546 0.593-0.064 0.066-0.126 0.13-0.192 0.193-0.46 0.441-1.006 0.469-1.409 0.077-0.413-0.403-0.394-0.978 0.058-1.447 0.053-0.056 0.108-0.112 0.165-0.168 0.164-0.162 0.345-0.332 0.574-0.56-0.227-0.202-0.432-0.359-0.608-0.524zM23.366 13.386l-0.072-0.074q-0.749-0.748-1.46-0.714-0.586 0.029-1.148 0.59-0.328 0.328-0.45 0.719-0.090 0.286-0.069 0.608 0.010 0.151 0.045 0.296 0.126 0.531 0.578 0.984l0.067 0.064q-0.082 0.082-0.136 0.139-0.688 0.717-0.656 1.399 0.030 0.6 0.617 1.174 0.563 0.55 1.148 0.573 0.673 0.027 1.374-0.644 0.065-0.062 0.152-0.152 0.070 0.080 0.126 0.138 0.685 0.685 1.354 0.67 0.597-0.014 1.182-0.584 0.592-0.576 0.617-1.177 0.028-0.664-0.636-1.358-0.067-0.070-0.163-0.16 0.102-0.097 0.172-0.17 0.657-0.686 0.632-1.346-0.024-0.606-0.622-1.189-0.575-0.56-1.166-0.578-0.649-0.018-1.317 0.619-0.074 0.072-0.17 0.173z"></path>
</symbol>
<symbol id="icon-vr" viewBox="0 0 32 32">
<path fill="#e60000" style="fill: var(--color1, #e60000)" d="M15.449 10.075l0.698-0.002 0.723 0.002c0.485 0.002 0.973 0.004 1.46-0.002 0.756-0.017 1.184-0.445 1.192-1.208q0.007-0.505 0.007-1.009t-0.006-1.006c0-0.797-0.445-1.25-1.243-1.25h-4.24c-0.79 0.008-1.226 0.454-1.234 1.259v1.972c0 0.806 0.428 1.234 1.242 1.242 0.465 0.006 0.934 0.004 1.402 0.002zM7.465 12.323h17.424c1.546 0 2.452 0.898 2.469 2.434 0.008 0.789 0.143 0.914 0.932 0.923 0.882 0 1.318 0.428 1.318 1.301v4.112c0 0.874-0.436 1.302-1.318 1.302-0.789 0-0.923 0.134-0.932 0.923-0.008 1.536-0.923 2.442-2.469 2.434-1.259-0.009-2.519-0.009-3.77-0.067-0.73-0.034-1.377-0.353-1.956-0.781-0.58-0.42-1.142-0.856-1.714-1.276-0.882-0.663-1.654-0.663-2.536-0.008-0.562 0.419-1.117 0.839-1.68 1.258-0.725 0.546-1.64 0.874-2.631 0.874-0.011 0-0.021-0-0.032-0h0.002q-0.818 0.006-1.637 0.006h-0.016q-0.811 0-1.622-0.006c-1.36-0.008-2.293-0.931-2.318-2.291v-0.378c-0.026-0.486-0.218-0.671-0.706-0.688h-0.42c-0.655-0.034-1.117-0.47-1.117-1.116-0.009-0.809-0.014-1.764-0.014-2.72 0-0.622 0.002-1.244 0.006-1.866l-0.001 0.096c0.008-0.63 0.462-1.066 1.083-1.108 0.066-0.006 0.13-0.004 0.194-0.002l0.099 0.002c0.697 0 0.856-0.16 0.865-0.864 0.017-1.612 0.898-2.494 2.494-2.494z"></path>
<path fill="#e60000" style="fill: var(--color1, #e60000)" d="M16.147 10.074l0.726 0.002c0.484 0.002 0.97 0.004 1.458-0.002 0.755-0.016 1.184-0.444 1.192-1.208 0.003-0.236 0.005-0.572 0.006-0.71v-0.298c0-0.335-0.002-0.671-0.006-1.006 0-0.797-0.445-1.25-1.243-1.25h-4.24c-0.79 0.009-1.226 0.454-1.234 1.259v1.972c0 0.806 0.428 1.234 1.242 1.242 0.464 0.006 0.931 0.004 1.398 0.002l0.702-0.002zM16.146 9.274l-0.7 0.002q-0.93 0.004-1.39-0.002-0.232-0.002-0.345-0.12-0.106-0.11-0.106-0.322v-1.964q0.002-0.248 0.128-0.365 0.107-0.1 0.306-0.102h4.24q0.213 0 0.323 0.106 0.12 0.115 0.12 0.354 0.006 0.498 0.006 0.996t-0.006 1q-0.002 0.21-0.109 0.314-0.1 0.098-0.293 0.102-0.482 0.006-1.45 0.002l-0.726-0.002zM4.979 23.082c-0.026-0.486-0.218-0.671-0.706-0.688h-0.42c-0.655-0.034-1.118-0.47-1.118-1.116-0.016-1.494-0.016-2.997-0.008-4.49 0.009-0.63 0.462-1.066 1.084-1.108 0.066-0.006 0.13-0.004 0.194-0.002l0.099 0.002c0.697 0 0.857-0.159 0.865-0.865 0.017-1.611 0.898-2.493 2.494-2.493h17.424c1.546 0 2.453 0.898 2.469 2.434 0.009 0.789 0.143 0.915 0.932 0.923 0.882 0 1.318 0.428 1.318 1.302v4.112c0 0.873-0.436 1.301-1.318 1.301-0.789 0-0.924 0.134-0.932 0.923-0.008 1.536-0.923 2.442-2.469 2.434-1.259-0.009-2.519-0.009-3.77-0.067-0.73-0.034-1.377-0.353-1.957-0.781-0.579-0.42-1.142-0.856-1.712-1.276-0.882-0.663-1.655-0.663-2.536-0.008-0.563 0.419-1.118 0.839-1.68 1.259-0.79 0.578-1.679 0.872-2.662 0.872-0.546 0.004-1.097 0.006-1.637 0.006h-0.016c-0.541 0-1.081-0.002-1.622-0.006-1.361-0.009-2.293-0.932-2.318-2.292v-0.378zM3.878 21.594h0.423q0.706 0.025 1.074 0.39 0.366 0.362 0.402 1.058l0.002 0.020v0.384q0.014 0.75 0.396 1.127 0.38 0.374 1.125 0.378l1.631 0.006 1.64-0.006q0.618 0 1.174-0.186 0.533-0.178 1.008-0.527l1.682-1.262q0.88-0.653 1.756-0.648 0.867 0.005 1.73 0.654 0.255 0.188 0.758 0.566 0.632 0.476 0.957 0.711 0.801 0.592 1.518 0.624 1.078 0.051 3.266 0.064l0.472 0.002q0.83 0.005 1.246-0.408 0.414-0.41 0.418-1.234 0.010-0.858 0.443-1.286t1.289-0.428q0.269 0 0.398-0.134 0.121-0.126 0.121-0.368v-4.112q0-0.238-0.118-0.362-0.131-0.138-0.408-0.138-0.858-0.010-1.288-0.442-0.426-0.429-0.435-1.272-0.010-0.818-0.422-1.228-0.418-0.414-1.247-0.414h-17.424q-0.826 0-1.249 0.412-0.437 0.426-0.446 1.29-0.010 0.832-0.431 1.246-0.416 0.409-1.234 0.409-0.046 0-0.122-0.002-0.083-0.002-0.118 0-0.192 0.014-0.275 0.116-0.061 0.074-0.062 0.196l-0.005 2.243 0.014 2.246q0 0.121 0.059 0.196 0.082 0.106 0.282 0.12z"></path>
</symbol>
<symbol id="icon-twitter" viewBox="0 0 32 32">
<path fill="#fff" style="fill: var(--color1, #fff)" d="M10.067 29c12.073 0 18.677-10.004 18.677-18.677 0-0.281-0.005-0.569-0.019-0.851 1.29-0.94 2.376-2.066 3.245-3.351l0.030-0.047c-1.197 0.533-2.467 0.88-3.768 1.032 1.356-0.823 2.377-2.084 2.873-3.584l0.013-0.047c-1.2 0.723-2.596 1.275-4.083 1.578l-0.085 0.014c-1.202-1.276-2.902-2.070-4.788-2.070-3.63 0-6.573 2.943-6.573 6.573 0 0.526 0.062 1.038 0.178 1.528l-0.009-0.045c-5.467-0.283-10.275-2.879-13.502-6.82l-0.026-0.033c-0.557 0.945-0.887 2.083-0.887 3.297 0 2.267 1.148 4.266 2.894 5.448l0.023 0.015c-1.096-0.036-2.116-0.335-3.006-0.836l0.033 0.017v0.080c0 0.002 0 0.003 0 0.005 0 3.166 2.242 5.808 5.224 6.426l0.043 0.007c-0.516 0.147-1.109 0.231-1.721 0.231-0.439 0-0.868-0.043-1.282-0.126l0.042 0.007c0.864 2.628 3.27 4.503 6.122 4.563l0.007 0c-2.216 1.753-5.051 2.812-8.133 2.812-0.56 0-1.112-0.035-1.654-0.103l0.065 0.007c2.844 1.849 6.322 2.949 10.058 2.949 0.003 0 0.006 0 0.009 0h-0z"></path>
</symbol>
<symbol id="icon-linkedin" viewBox="0 0 32 32">
<path fill="#fff" style="fill: var(--color1, #fff)" d="M29.631 0h-27.268c-1.307 0-2.363 1.031-2.363 2.307v27.381c0 1.275 1.056 2.312 2.363 2.312h27.268c1.307 0 2.369-1.037 2.369-2.307v-27.387c0-1.276-1.063-2.307-2.369-2.307zM9.493 27.269h-4.749v-15.276h4.749v15.276zM7.12 9.912c-0.031 0.001-0.068 0.002-0.105 0.002-1.52 0-2.752-1.232-2.752-2.752s1.232-2.752 2.752-2.752c0.037 0 0.074 0.001 0.11 0.002l-0.005-0c1.493 0.034 2.69 1.252 2.69 2.75s-1.197 2.716-2.687 2.75l-0.003 0zM27.269 27.269h-4.744v-7.427c0-1.768-0.032-4.049-2.469-4.049-2.468 0-2.844 1.932-2.844 3.925v7.551h-4.737v-15.276h4.551v2.088h0.063c0.631-1.2 2.181-2.469 4.487-2.469 4.807 0 5.693 3.163 5.693 7.276v8.381z"></path>
</symbol>
<symbol id="icon-facebook" viewBox="0 0 32 32">
<path fill="#fff" style="fill: var(--color1, #fff)" d="M32 16c0-8.836-7.164-16-16-16s-16 7.164-16 16c0 7.987 5.851 14.605 13.5 15.805v-11.179h-4.063v-4.627h4.063v-3.525c0-4.009 2.389-6.224 6.044-6.224 1.749 0 3.581 0.312 3.581 0.312v3.937h-2.019c-1.988 0-2.608 1.233-2.608 2.5v3h4.437l-0.709 4.625h-3.728v11.18c7.651-1.2 13.501-7.819 13.501-15.805z"></path>
</symbol>
<symbol id="icon-voice" viewBox="0 0 32 32">
<path fill="none" stroke="#fff" style="stroke: var(--color1, #fff)" stroke-linejoin="round" stroke-linecap="round" stroke-miterlimit="4" stroke-width="2.6667" d="M25.485 7.515c2.172 2.172 3.515 5.172 3.515 8.485s-1.343 6.314-3.515 8.485v0M21.951 11.051c1.267 1.267 2.050 3.017 2.050 4.949s-0.783 3.683-2.050 4.949v0M9 11l6.293-6.293c0.181-0.181 0.431-0.292 0.707-0.292 0.552 0 1 0.447 1 0.999v21.173c-0 0.552-0.448 0.999-1 0.999-0.276 0-0.526-0.112-0.707-0.292v0l-6.293-6.293h-2.987c-1.173 0-2.272-0.675-2.584-1.805-0.273-0.954-0.429-2.050-0.429-3.183 0-0.004 0-0.008 0-0.012v0.001c0-1.107 0.149-2.177 0.429-3.195 0.312-1.129 1.411-1.805 2.584-1.805h2.987z"></path>
</symbol>
<symbol id="icon-like" viewBox="0 0 32 32">
<path fill="none" stroke="#fff" style="stroke: var(--color1, #fff)" stroke-linejoin="round" stroke-linecap="round" stroke-miterlimit="4" stroke-width="2.6667" d="M8.844 13.667c1.075 0 2.044-0.595 2.708-1.44 1.033-1.31 2.303-2.383 3.751-3.168l0.064-0.032c0.964-0.512 1.8-1.275 2.204-2.287 0.272-0.66 0.429-1.426 0.429-2.228 0-0 0-0.001 0-0.001v0-0.844c0-0.552 0.448-1 1-1v0c1.657 0 3 1.343 3 3v0c0 1.536-0.347 2.991-0.964 4.291-0.355 0.744 0.143 1.709 0.967 1.709M22.003 11.667h4.168c1.368 0 2.593 0.925 2.739 2.287 0.060 0.563 0.091 1.133 0.091 1.713 0 0.007 0 0.016 0 0.024 0 3.803-1.332 7.294-3.555 10.033l0.023-0.030c-0.517 0.643-1.316 0.972-2.14 0.972h-5.355c-0.644 0-1.285-0.104-1.897-0.307l-4.152-1.387c-0.565-0.194-1.216-0.307-1.894-0.307-0.001 0-0.002 0-0.004 0h-2.154M22.003 11.667h-3.003M7.872 24.667c0.111 0.273 0.231 0.54 0.36 0.803 0.263 0.533-0.104 1.197-0.697 1.197h-1.211c-1.185 0-2.284-0.691-2.629-1.824-0.441-1.395-0.695-3-0.695-4.663 0-0.004 0-0.009 0-0.013v0.001c0-2.071 0.393-4.048 1.108-5.864 0.408-1.032 1.448-1.636 2.559-1.636h1.404c0.629 0 0.993 0.741 0.667 1.28-1.090 1.767-1.736 3.909-1.736 6.201 0 0.007 0 0.013 0 0.020v-0.001c0 1.592 0.309 3.111 0.872 4.5z"></path>
</symbol>
<symbol id="icon-add" viewBox="0 0 32 32">
<path fill="none" stroke="#fff" style="stroke: var(--color1, #fff)" stroke-linejoin="round" stroke-linecap="round" stroke-miterlimit="4" stroke-width="2.6667" d="M16 8v16M24 16h-16"></path>
</symbol>
<symbol id="icon-star" viewBox="0 0 30 32">
<path fill="none" stroke="#999" style="stroke: var(--color1, #999)" stroke-linejoin="round" stroke-linecap="round" stroke-miterlimit="4" stroke-width="1.5238" d="M14.578 5.205c0.111-0.26 0.364-0.438 0.659-0.438s0.548 0.179 0.657 0.434l0.002 0.005 2.7 6.491c0.102 0.245 0.335 0.414 0.602 0.436l7.008 0.562c0.368 0.031 0.656 0.338 0.656 0.712 0 0.216-0.096 0.41-0.248 0.541l-0.001 0.001-5.338 4.574c-0.153 0.132-0.249 0.326-0.249 0.542 0 0.058 0.007 0.115 0.020 0.17l-0.001-0.005 1.63 6.839c0.012 0.049 0.019 0.105 0.019 0.163 0 0.395-0.32 0.715-0.715 0.715-0.137 0-0.265-0.039-0.374-0.106l0.003 0.002-5.999-3.663c-0.106-0.066-0.235-0.105-0.373-0.105s-0.267 0.039-0.376 0.107l0.003-0.002-5.999 3.663c-0.106 0.065-0.234 0.104-0.371 0.104-0.395 0-0.715-0.32-0.715-0.715 0-0.058 0.007-0.114 0.020-0.168l-0.001 0.005 1.63-6.839c0.012-0.050 0.019-0.107 0.019-0.166 0-0.216-0.096-0.41-0.247-0.541l-0.001-0.001-5.341-4.574c-0.153-0.132-0.249-0.326-0.249-0.542 0-0.374 0.287-0.681 0.653-0.712l0.003-0 7.010-0.562c0.272-0.023 0.499-0.195 0.6-0.433l0.002-0.005 2.7-6.491z"></path>
</symbol>
<symbol id="icon-lang" viewBox="0 0 30 32">
<path fill="none" stroke="#999" style="stroke: var(--color1, #999)" stroke-linejoin="round" stroke-linecap="round" stroke-miterlimit="4" stroke-width="2.2857" d="M13.333 27.429l6.667-14.286 6.667 14.286M15.238 23.619h9.524M3.81 7.899c2.282-0.3 4.92-0.471 7.599-0.471 0.007 0 0.014 0 0.021 0h-0.001M11.429 7.429c1.423 0 2.834 0.049 4.235 0.145M11.429 7.429v-2.857M15.663 7.573c-1.527 6.761-5.883 12.283-11.728 15.353l-0.126 0.060M15.663 7.573c1.369 0.094 2.534 0.21 3.689 0.358l-0.305-0.032M13.221 18.688c-2.028-2.060-3.67-4.507-4.805-7.218l-0.056-0.151"></path>
</symbol>
<symbol id="icon-genres" viewBox="0 0 30 32">
<path fill="none" stroke="#999" style="stroke: var(--color1, #999)" stroke-linejoin="round" stroke-linecap="round" stroke-miterlimit="4" stroke-width="1.5238" d="M4.762 8.381c0-1.579 1.28-2.857 2.857-2.857h2.857c1.579 0 2.857 1.28 2.857 2.857v2.857c0 1.579-1.28 2.857-2.857 2.857h-2.857c-1.578 0-2.857-1.279-2.857-2.857v0-2.857zM4.762 20.762c0-1.579 1.28-2.857 2.857-2.857h2.857c1.579 0 2.857 1.28 2.857 2.857v2.857c0 1.577-1.28 2.857-2.857 2.857h-2.857c-1.578 0-2.857-1.279-2.857-2.857v0-2.857zM17.143 8.381c0-1.579 1.28-2.857 2.857-2.857h2.857c1.577 0 2.857 1.28 2.857 2.857v2.857c0 1.579-1.28 2.857-2.857 2.857h-2.857c-1.578 0-2.857-1.279-2.857-2.857v0-2.857zM17.143 20.762c0-1.579 1.28-2.857 2.857-2.857h2.857c1.577 0 2.857 1.28 2.857 2.857v2.857c0 1.577-1.28 2.857-2.857 2.857h-2.857c-1.578 0-2.857-1.279-2.857-2.857v0-2.857z"></path>
</symbol>
<symbol id="icon-calendar" viewBox="0 0 30 32">
<path fill="none" stroke="#999" style="stroke: var(--color1, #999)" stroke-linejoin="round" stroke-linecap="round" stroke-miterlimit="4" stroke-width="1.5238" d="M8.571 4.571v2.857M21.905 4.571v2.857M3.81 24.571v-14.286c0-1.579 1.28-2.857 2.857-2.857h17.143c1.577 0 2.857 1.28 2.857 2.857v14.286M3.81 24.571c0 1.577 1.28 2.857 2.857 2.857h17.143c1.577 0 2.857-1.28 2.857-2.857M3.81 24.571v-9.524c0-1.579 1.28-2.857 2.857-2.857h17.143c1.577 0 2.857 1.28 2.857 2.857v9.524"></path>
</symbol>
<symbol id="icon-rate-star" viewBox="0 0 34 32">
<path fill="#none" d="M16.941 0.941l5.865 8.868 10.248 2.84-6.622 8.32 0.467 10.62-9.958-3.729-9.958 3.727 0.467-10.622-6.622-8.32 10.248-2.837 5.865-8.868z"></path>
</symbol>
<symbol id="icon-rate-star-left" viewBox="0 0 17 32">
<path fill="#none"  d="M6.316 31.158l10.22-3.688v-26.627l-6.019 8.773-10.516 2.806 6.796 8.229-0.48 10.508z"></path>
</symbol>
<symbol id="icon-rate-star-right" viewBox="0 0 17 32">
<path fill="#none"  d="M6.897 9.615l-5.519-8.773v26.627l9.369 3.688-0.441-10.508 6.232-8.229-9.642-2.804z"></path>
</symbol>
</defs>
</svg>
